<svg width="16" height="16" viewBox="0 0 16 16" fill="none" xmlns="http://www.w3.org/2000/svg">
<rect width="16" height="16" rx="8" fill="white"/>
<path d="M12.2325 10.1289C12.0071 9.8584 11.751 9.61592 11.5033 9.38142C11.4152 9.29802 11.3241 9.2118 11.2363 9.12606C10.9843 8.87965 10.9751 8.78707 11.1747 8.50718C11.3127 8.31425 11.4591 8.12107 11.6007 7.93424C11.729 7.76473 11.8618 7.58944 11.9891 7.41357L12.0152 7.37742C12.2584 7.04088 12.51 6.69289 12.6438 6.27309C12.6786 6.16234 12.7151 5.99936 12.6316 5.86307C12.5482 5.7269 12.3864 5.68536 12.272 5.66596C12.2154 5.65635 12.1592 5.65504 12.107 5.65504L10.5142 5.6539L10.501 5.65379C10.2602 5.65379 10.0979 5.76728 10.0049 6.00078C9.91609 6.22389 9.81856 6.46147 9.70726 6.68736C9.48578 7.13719 9.20449 7.65529 8.79747 8.08739L8.78026 8.10577C8.73219 8.15743 8.67774 8.21592 8.63793 8.21592C8.63183 8.21592 8.62519 8.21475 8.61767 8.21239C8.53336 8.17954 8.47677 7.97544 8.47934 7.8805C8.47936 7.87919 8.47939 7.87788 8.47939 7.87657L8.47828 6.0356C8.47828 6.02922 8.47783 6.02289 8.477 6.01657C8.43648 5.7173 8.34673 5.53101 8.0076 5.46459C7.99859 5.4628 7.98939 5.46191 7.98022 5.46191H6.324C6.05417 5.46191 5.90549 5.57159 5.76573 5.73574C5.728 5.77962 5.64948 5.87097 5.6884 5.98178C5.72789 6.09424 5.85608 6.11829 5.89783 6.1261C6.10503 6.16553 6.22182 6.29227 6.25491 6.51372C6.31266 6.89827 6.31976 7.30872 6.27724 7.80545C6.26539 7.9435 6.24194 8.05012 6.2033 8.14121C6.19433 8.16247 6.1625 8.23185 6.13005 8.23188C6.11973 8.23188 6.0899 8.22783 6.03556 8.19039C5.90709 8.10238 5.81309 7.97678 5.7035 7.82163C5.33069 7.29476 5.0178 6.71435 4.74683 6.04683C4.64633 5.8011 4.45865 5.66353 4.21811 5.65949C3.9538 5.65547 3.71417 5.65353 3.48562 5.65353C3.23591 5.65353 3.0044 5.65584 2.77833 5.66054C2.5848 5.66396 2.45094 5.72197 2.3805 5.8331C2.30995 5.94431 2.31454 6.09039 2.39415 6.26723C3.03144 7.68401 3.60926 8.71413 4.26774 9.60746C4.72914 10.2325 5.19193 10.6652 5.72402 10.969C6.2846 11.2897 6.91282 11.4456 7.64453 11.4456C7.72748 11.4456 7.81324 11.4436 7.89972 11.4395C8.3249 11.4188 8.48264 11.2649 8.50259 10.8509C8.51207 10.6394 8.53521 10.4175 8.63921 10.2283C8.70486 10.1091 8.76607 10.1091 8.78618 10.1091C8.82493 10.1091 8.87297 10.1269 8.92457 10.1603C9.01712 10.2207 9.09648 10.3016 9.16153 10.3723C9.22276 10.4395 9.28331 10.5073 9.34391 10.5752C9.4747 10.7217 9.60993 10.8731 9.7512 11.0168C10.0604 11.3314 10.4011 11.4697 10.7923 11.4397H12.2526C12.2557 11.4397 12.2589 11.4396 12.262 11.4394C12.4075 11.4298 12.5335 11.3491 12.6078 11.2179C12.6997 11.0555 12.6979 10.8483 12.6028 10.6635C12.495 10.4545 12.355 10.2759 12.2325 10.1289Z" fill="#1E1E1E"/>
</svg>
